<svg xmlns="http://www.w3.org/2000/svg" width="1304.98" height="893.77"><defs><style>@font-face{font-family:&quot;Virgil&quot;;src:url(https://excalidraw.com/Virgil.woff2)}@font-face{font-family:&quot;Cascadia&quot;;src:url(https://excalidraw.com/Cascadia.woff2)}@font-face{font-family:&quot;Assistant&quot;;src:url(https://excalidraw.com/Assistant-Regular.woff2)}</style></defs><path fill="#fff" d="M0 0h1304.98v893.77H0z"/><g stroke-linecap="round"><path fill="none" stroke="#ffc9c9" stroke-width="2" d="M17.86 18.16s0 0 0 0m0 0s0 0 0 0m-7.6 33.14c7.25-9.01 15.5-18.36 36.08-41.51M10.26 51.3C22.77 37.5 35.87 23.92 46.34 9.79M10.52 75.38C25.17 57.88 41.13 41.12 67.6 9.72M10.52 75.38C24.07 59.61 38.51 43.31 67.6 9.72m-57.47 90.5c25.4-29.56 47.43-54.58 78.07-89.81m-78.07 89.81C34.24 70.85 59.67 41.41 88.2 10.41M10.4 124.3c36.39-42.69 74.98-88.84 99.06-113.96M10.4 124.3c37.32-41.32 75.39-83.83 99.06-113.96M10.01 149.13C46.4 105.59 83.8 63.72 130.72 10.27M10.01 149.13c45.18-53.5 90.82-105.97 120.71-138.86M10.27 173.22C63.23 115.65 112.44 54.36 151.98 10.2M10.27 173.22C51.11 125.25 93.61 77 151.98 10.2M10.54 197.3c50.42-57.65 101.75-118.7 162.7-187.17M10.54 197.3c64.99-75.26 127.91-149.65 162.7-187.17m-163.09 212C71.49 148.06 136.04 77.59 194.5 10.06M10.15 222.13c46.98-52.66 93.17-105.35 184.35-212.07M10.42 246.22c42.74-49.73 86.83-98.09 205.34-236.23M10.42 246.22c55.85-65.1 112.9-130.17 205.34-236.23M10.03 271.05c73.1-87.01 147.83-170.62 226.99-261.13M10.03 271.05C85.29 184.6 159.97 97.49 237.02 9.92M10.29 295.13c60.13-69.66 121.05-138 247.99-285.28M10.29 295.13C72.64 224.91 132.53 154.85 258.28 9.85M9.9 319.97c81.78-91.9 163.02-184.81 269.64-310.19M9.9 319.97C67.03 253.54 125.4 186.19 279.54 9.78M10.17 344.05C115.97 223.02 222.83 100.67 300.8 9.72M10.17 344.05C109.52 227.09 211.05 110.44 300.8 9.72M10.44 368.13C94.85 271.28 179.06 174.9 321.41 10.4M10.44 368.13C87.28 280.25 164.38 191.62 321.41 10.4M10.05 392.97C122.5 264.45 234.38 135.04 342.67 10.33M10.05 392.97C128.32 257.55 245.11 123.2 342.67 10.33M10.31 417.05c75.95-88.12 153.16-176.56 353.62-406.79M10.31 417.05c117.97-137.5 237.51-274.49 353.62-406.79M9.92 441.89c87.14-96.13 170.99-194.45 375.27-431.7M9.92 441.89c92.66-105.91 183.45-209.73 375.27-431.7m-375 455.78C159.3 294.19 307.78 123.88 406.45 10.12M10.19 465.97C115.94 343.06 224.3 219.69 406.45 10.12M10.46 490.05C138.45 344.37 265.42 197.56 427.71 10.06M10.46 490.05C147.64 335.46 283.22 178.8 427.71 10.06M10.07 514.89c143.89-165.44 286.31-329.8 438.9-504.9m-438.9 504.9c91.55-101 180.62-204.02 438.9-504.9M10.33 538.97C169.14 356.51 328.45 174.14 470.23 9.92M10.33 538.97C162.8 364.23 313.23 191.06 470.23 9.92M9.94 563.81c148.39-173 299.22-345.34 481.55-553.96M9.94 563.81C179.49 366.61 351.83 168.47 491.49 9.85M10.21 587.89C174.87 397.7 342.41 205.39 512.75 9.78M10.21 587.89C160.22 417.07 309.82 244.96 512.75 9.78M10.48 611.97C179.9 415.18 350.59 220.93 533.35 10.47M10.48 611.97c171.35-197.2 342.55-393.75 522.87-601.5M10.09 636.81C198.99 421.53 387.25 205.96 554.61 10.4M10.09 636.81c165.83-188.86 330-377.6 544.52-626.41M10.35 660.89C131.29 520.84 254.39 380.43 575.87 10.33M10.35 660.89c211.36-246.44 425.47-492.5 565.52-650.56M9.96 685.72c162.4-183.84 323.66-369.47 587.18-675.46M9.96 685.72C198.81 463.38 390.24 243.21 597.14 10.26M10.23 709.81c239.75-271.96 477.39-545 608.17-699.62M10.23 709.81C221.3 467.71 431.69 225.94 618.4 10.19M10.49 733.89C211.37 507.58 409.44 280.31 639.66 10.12M10.49 733.89C247.48 458.11 486.23 183.15 639.66 10.12M10.11 758.72C210.28 531.08 409.49 301.86 660.92 10.05M10.11 758.72C229.77 505.73 447.66 255.36 660.92 10.05M10.37 782.81C188.17 580.38 366.16 374.27 682.18 9.98M10.37 782.81C276.41 480.07 539.61 177.12 682.18 9.98M9.98 807.64C270.99 506.96 531.47 205.92 703.44 9.91M9.98 807.64C163.15 630.55 318.09 452.68 703.44 9.91M10.25 831.72C173.76 642.14 338.07 452.42 724.7 9.84M10.25 831.72C228.39 578.93 449.65 324.54 724.7 9.84M10.51 855.81C211.89 627.84 408.89 401.03 745.96 9.78M10.51 855.81C272.8 557.07 534.5 256.18 745.96 9.78M16.68 873.09C251.75 603.34 489.24 331.27 766.56 10.46M16.68 873.09C170.16 695.77 322.45 520.38 766.56 10.46M30.07 882.08C188.93 698 347.8 516.36 787.82 10.39M30.07 882.08C222.15 667.56 410.93 450.77 787.82 10.39M49.36 884.28c253.9-296.13 509.38-588.95 759.72-873.96M49.36 884.28c275.22-314.93 549.6-630.34 759.72-873.96M70.62 884.21C278.9 647.92 485.07 411.17 830.34 10.25M70.62 884.21C290.73 628.9 510.92 375.62 830.34 10.25M91.88 884.14C324.63 615.93 557.25 347.75 851.6 10.19M91.88 884.14C386.9 543.12 684.49 200.3 851.6 10.19M113.14 884.07C334.86 631.94 553.81 379.98 872.86 10.12M113.14 884.07C290.46 676.49 469.8 470.01 872.86 10.12M134.41 884C402.3 577.14 668.27 271 894.12 10.05M134.41 884C385.63 599.02 634.24 314.02 894.12 10.05M155.01 884.69C421.03 580.09 686.75 273.01 915.38 9.98M155.01 884.69C392.79 609.54 631.93 334.85 915.38 9.98M176.27 884.62C476.79 535.66 779.37 187.36 936.64 9.91M176.27 884.62C417.93 610.19 657.9 334.4 936.64 9.91M197.53 884.55C423.03 622.99 646.91 363.53 957.9 9.84M197.53 884.55C446.4 599.35 692.3 316.52 957.9 9.84M218.79 884.48C429.51 644.59 637.32 404.16 979.16 9.77M218.79 884.48C465.95 598.95 715.62 312.25 979.16 9.77M240.05 884.41C409.08 688.14 576.77 494.04 999.77 10.46M240.05 884.41c247.4-288.1 497.7-576.82 759.72-873.95M261.31 884.34c164.2-193.98 331.92-387.66 759.72-873.95M261.31 884.34c190.85-221.21 385-444.66 759.72-873.95M282.57 884.27c286.56-330.93 575.37-663.6 759.72-873.95M282.57 884.27c285.46-328.83 568.96-654.54 759.72-873.95M303.83 884.2C587.5 556.75 873.5 229.17 1063.55 10.25M303.83 884.2c158.25-182.19 316.94-364.8 759.72-873.95M325.09 884.14c208.94-245.35 420.67-486.63 759.72-873.96M325.09 884.14c272.5-319.18 547.02-635.69 759.72-873.96M346.35 884.07c214.82-249.96 432.84-500.02 759.72-873.96M346.35 884.07C514.71 690.1 681.47 497.93 1106.07 10.11M367.61 884c280.27-327.71 563.05-651.06 759.72-873.96M367.61 884c281.76-326.57 567.12-654.06 759.72-873.96M388.22 884.68c154.43-172.54 307.23-349.4 760.37-874.71M388.22 884.68C645 589.47 903.74 291.71 1148.59 9.97M409.48 884.61c291.69-330.8 578.45-663.29 760.37-874.7m-760.37 874.7c275.9-315.88 551.03-632.86 760.37-874.7M430.74 884.54c286.85-329.08 572.32-657.76 760.37-874.7m-760.37 874.7C686.98 585.63 945.78 287.2 1191.11 9.84M452 884.48c283.83-321.07 563.81-644.05 760.37-874.71M452 884.48C636.86 672.59 820.66 460.77 1212.37 9.77M473.26 884.41c280.21-325.9 562.5-648.67 759.71-873.96M473.26 884.41c160.22-185.39 323.41-373.47 759.71-873.96M494.52 884.34c202.1-229.59 405.73-463.1 759.71-873.96M494.52 884.34c153.41-177.21 309.52-356.65 759.71-873.96M515.78 884.27c265.61-302.06 529.83-607.04 758.4-872.45m-758.4 872.45c208.09-242.97 415.85-482.2 758.4-872.45M537.04 884.2c263.78-305.09 526.05-608.13 751.18-864.14M537.04 884.2c162.38-185.58 322.24-369.4 751.18-864.14M558.3 884.13c280.13-321.27 561.15-644.71 736.09-846.78M558.3 884.13c188.14-213.27 374.27-428.46 736.09-846.78M579.56 884.06c253.16-290.92 508.93-584.23 715.76-823.39M579.56 884.06c212.86-243.25 423.27-485.26 715.76-823.39m-694.5 823.32c237.1-270.72 472.6-540.7 694.76-799.23M600.82 883.99c141.01-163.33 283.63-327.17 694.76-799.23M621.42 884.68c248.29-286.51 498.44-572.37 673.77-775.09M621.42 884.68c165.7-194.57 333.99-388.29 673.77-775.09M642.68 884.61c129.48-152.83 261.36-304.8 652.78-750.94M642.68 884.61c131.84-153.25 263.77-304.99 652.78-750.94M663.94 884.54c211.55-246.22 423.79-489.82 631.13-726.03M663.94 884.54c225.99-258.5 448.68-515.1 631.13-726.03M685.2 884.47c218.74-250.89 434.05-498.9 610.14-701.88M685.2 884.47c143.77-166.23 288.99-333.4 610.14-701.88M706.46 884.4c204.98-237.8 412.59-477.64 589.14-677.73M706.46 884.4c144.95-163.46 288.02-329.25 589.14-677.73M727.72 884.33c156.4-181.69 316.82-364.92 567.49-652.82M727.72 884.33c188.42-213.4 374.11-427.38 567.49-652.82M748.98 884.26c202.41-234.94 405.3-467.72 546.5-628.67m-546.5 628.67c129.93-147.92 257.75-294.95 546.5-628.67M770.24 884.2c145.86-166.08 292-332.93 524.85-603.77M770.24 884.2C880.83 758.39 989 634.06 1295.09 280.43M791.5 884.13c153.13-174.09 304.93-349.29 503.86-579.62M791.5 884.13c103.12-119.64 207.32-239.78 503.86-579.62m-482.6 579.55c161.91-187.89 325.64-374.62 482.86-555.47M812.76 884.06c109.99-126.03 219.87-252.25 482.86-555.47m-461.6 555.4c138.3-161.1 277.42-320.85 461.21-530.56M834.02 883.99c145.77-166.92 290-333.52 461.21-530.56m-440.6 531.24c118.06-133.97 236.22-268.72 440.87-507.16M854.63 884.67c116.59-134.91 234.77-270.25 440.87-507.16m-419.61 507.1c121.68-140.35 245.58-282.13 419.22-482.26M875.89 884.61c117.87-132.45 233.1-265.53 419.22-482.26M897.15 884.54c146-169.6 292.93-340.15 398.23-458.11M897.15 884.54c88.41-101.18 175.81-202.33 398.23-458.11M918.41 884.47c90.55-106.59 183.29-212.7 377.23-433.96M918.41 884.47c109.52-126.69 218.78-252.12 377.23-433.96M939.67 884.4c128.87-146.35 255.75-293.48 355.58-409.05M939.67 884.4c106.88-123.6 214.21-247.18 355.58-409.05M960.93 884.33c92.31-109.36 187.18-216.57 334.59-384.9m-334.59 384.9c104.95-122.27 210.86-244.44 334.59-384.9M982.19 884.26c78.02-88.31 153.57-178.02 312.94-360m-312.94 360c110.12-126.92 219.9-253.77 312.94-360m-291.68 359.93c111.35-129.7 223.84-258.94 291.94-335.84m-291.94 335.84c113.86-130.82 228.27-262.32 291.94-335.84m-270.68 335.77c68.46-80.16 138.28-158.29 270.95-311.69m-270.95 311.69c87.63-99.59 174.23-199.93 270.95-311.69m-249.69 311.62c72.8-84.91 145.01-167.25 249.3-286.79m-249.3 286.79c77.79-92.55 157.33-183.24 249.3-286.79m-228.04 286.72c69.14-83.58 140.99-166.63 228.31-262.63m-228.31 262.63c89.48-103.67 178.15-205.91 228.31-262.63m-207.71 263.32c80.74-93.63 160.06-184.89 207.32-238.49m-207.32 238.49c76.34-90.1 153.14-177.02 207.32-238.49M1109.09 884.6c62.02-73.61 126.66-150.19 186.32-214.34M1109.09 884.6c45.59-54.82 92.34-107.85 186.32-214.34m-165.06 214.27c38.75-42.79 73.77-85.04 165.33-190.18m-165.33 190.18c65.83-73.61 129.95-147.49 165.33-190.18m-144.07 190.11c55.29-64.62 113.42-129.53 143.68-165.28m-143.68 165.28c32.18-37.82 65.07-75.19 143.68-165.28m-122.42 165.21c48.71-55.53 95.26-110.22 122.69-141.13m-122.69 141.13c36.73-42.2 73.25-83.37 122.69-141.13m-101.43 141.07c31.19-34.15 60.95-65.59 101.04-116.23m-101.04 116.23c35.84-42.51 72.42-82.76 101.04-116.23m-79.78 116.16c19.3-23.87 39.03-46.11 80.04-92.08m-80.04 92.08c30.2-34.83 59.34-70.2 80.04-92.08m-58.78 92.01c21.05-26.01 43.86-52.11 58.39-67.17m-58.39 67.17c17.22-18.72 33.91-39.65 58.39-67.17m-37.13 67.1c7.19-10.88 18.5-20.41 37.4-43.02m-37.4 43.02c14.84-16.97 29.16-33.52 37.4-43.02m-12.2 38.42c2.58-2.64 3.16-4.32 8.53-9.81m-8.53 9.81c1.79-1.58 3.52-3.68 8.53-9.81M22.71 879.45s0 0 0 0m0 0s0 0 0 0m28.61 3.67c-11.84-9.74-22.59-17.92-40.76-35.43m40.76 35.43c-9.8-7.38-19.3-15.37-40.76-35.43m65.59 35.82c-14.98-12.13-29.99-26.7-65.66-57.08m65.66 57.08c-14.97-15.14-31.28-28.37-65.66-57.08m89.74 56.81c-27.81-23.65-56.91-49.83-89.81-78.07m89.81 78.07c-29.58-26.7-60.9-53.09-89.81-78.07m114.65 78.46c-27.21-23.02-52.29-47.34-114.71-99.72m114.71 99.72c-33.55-28.78-67.81-58.12-114.71-99.72m138.79 99.46c-44.35-39.98-84.19-74.32-138.86-120.72m138.86 120.72c-51.42-45-100.09-88.17-138.86-120.72M173.23 883.1c-36.77-31.37-70.2-64.49-163.01-141.71M173.23 883.1C111.77 829.86 48.49 775.77 10.22 741.39m187.85 142.1C139.53 829.88 78.15 780.06 10.15 720.13m187.92 163.36c-49.88-40.93-98.03-83.62-187.92-163.36m212 163.09c-43.71-39.98-87.37-77.88-212.07-184.35m212.07 184.35c-44.37-38.68-89.22-77.7-212.07-184.35m236.91 184.74c-85.87-74.79-173.34-150.02-236.98-206m236.98 206c-75.19-65.56-150.67-130.9-236.98-206m261.06 205.74c-54.71-47.91-109.94-96.71-261.13-227m261.13 227c-86.8-76.96-175.44-152.39-261.13-227m285.21 226.73C189.47 791.56 84.5 700.09 10.63 635.75m284.52 247.33c-68.12-58.14-135.51-116.83-284.52-247.33m309.36 247.72C209.21 786.14 98.15 689.75 10.56 614.49m309.43 268.98c-81.32-70.48-161.46-139.89-309.43-268.98M344.07 883.2c-71.81-63.23-144.21-126.75-333.58-289.97M344.07 883.2c-72.93-61.56-144.51-124.61-333.58-289.97m358.42 290.36c-75.77-65.2-152.62-132.71-358.49-311.62m358.49 311.62C244.72 776.66 120.58 668.33 10.42 571.97m382.57 311.36c-98.73-87.11-198.44-173.57-382.64-332.62m382.64 332.62C296.7 800.49 200.96 716.72 10.35 550.71m406.72 332.35c-97.79-85.27-196.33-171.45-406.79-353.61m406.79 353.61C288.89 774.14 161.48 663.19 10.28 529.45m431.63 354c-95.21-80.39-190.07-162.67-431.7-375.26m431.7 375.26C333.6 791.17 226.54 698.26 10.21 508.19m455.78 374.99C307.75 747.72 149.58 611.34 10.14 486.93m455.85 396.25C316.21 751.79 165.78 620.97 10.14 486.93m480.69 396.64C353.03 762.1 215.71 642.98 10.08 465.66m480.75 417.91C333.62 749.13 178.13 614.6 10.08 465.66m504.83 417.65C344.96 734.81 173.87 587.66 10.01 444.4m504.9 438.91C351.19 742.08 187.56 600.23 10.01 444.4m528.98 438.64C419.63 779.24 298.67 675.53 9.94 423.14m529.05 459.9C385.35 748.29 232.34 614.52 9.94 423.14m553.89 460.29C423.15 762.37 283.38 641.28 10.62 402.54m553.21 480.89C411.12 750.8 258.51 618.44 10.62 402.54m577.29 480.63C430.35 743.51 271.41 605.36 10.55 381.28m577.36 501.89C374.8 699.46 162.13 515.36 10.55 381.28m602.19 502.28C460.49 753.15 310.81 622.25 10.49 360.02m602.25 523.54C418.33 717.43 225.84 549.47 10.49 360.02m626.34 523.27C492.63 756.15 345.89 627.3 10.42 338.76m626.41 544.53C459.41 729.8 281.32 575.39 10.42 338.76m650.49 544.26C461.72 710.24 261.55 538.07 10.35 317.5m650.56 565.52C498.6 742.1 337.65 602.02 10.35 317.5m675.39 565.91C430.11 662.4 174.87 440.43 10.28 296.24m675.46 587.17C437.22 666.24 188.43 449.71 10.28 296.24m699.54 586.91C489.18 689.07 268.04 496.66 10.21 274.98m699.61 608.17C567.44 762.08 425.13 638.05 10.21 274.98m724.45 608.56c-255.72-218.79-510-439.58-724.52-629.82m724.52 629.82C551.43 725.98 368.09 566.2 10.14 253.72m748.6 629.55C462.48 624.62 165.04 366.14 10.07 232.46m748.67 650.81c-289.28-253.6-578.99-504.9-748.67-650.81M782.82 883C574.52 704.91 365.73 523.59 10 211.2M782.82 883C487.61 629.74 194.23 374.66 10 211.2m797.66 672.19C498.65 612 188.22 341.79 9.93 189.94m797.73 693.45C527.53 643.16 248.06 399.99 9.93 189.94m821.81 693.19C655.32 725.57 476.58 571.67 10.62 169.33m821.12 713.8C593.32 672.08 353.75 463.68 10.62 169.33m845.96 714.19C558.07 622.71 262.6 365.4 10.55 148.07m846.03 735.45C598.17 659.57 339.37 434.79 10.55 148.07m870.11 735.18C577.04 618.49 270.97 353.7 10.48 126.81m870.18 756.44C585.68 630.98 290.63 374.63 10.48 126.81M905.5 883.64C676.58 686.75 446.56 488.29 10.41 105.55M905.5 883.64C710.87 718.8 518.58 551.7 10.41 105.55m919.17 777.82C567.91 564.86 203.52 247.71 10.34 84.29m919.24 799.08C584.96 584.66 243.42 287.96 10.34 84.29m943.32 798.82C666.08 631.48 377.15 380.98 10.27 63.03m943.39 820.08C674.44 643.81 395.82 401.72 10.27 63.03M978.5 883.5C639.5 587.54 302.81 295.26 10.2 41.77M978.5 883.5C737.92 671.9 494.54 460.06 10.2 41.77m992.38 841.46C783.5 693.24 566.28 504.45 14.66 24.45m987.92 858.78C683.29 606.75 365.8 330.62 14.66 24.45m1012.76 859.17C654.8 559.02 279.49 234.3 25.92 13.03m1001.5 870.59C689.34 587.3 349.58 292.32 25.92 13.03M1051.5 883.35C713.02 592.35 376.29 298.92 46.98 10.14M1051.5 883.35C728.84 604 406.57 323.88 46.98 10.14m1028.6 872.95C764.47 613.24 449.95 340.42 71.06 9.87m1004.52 873.22C870.03 704.61 666.36 527.44 71.06 9.87m1029.36 873.61C782.22 606.39 466.15 331.5 95.14 9.61m1005.28 873.87C825.82 647.16 549.49 407.29 95.14 9.61m1029.36 873.6C754.72 559.43 386.2 238.52 119.98 10M1124.5 883.21C807.05 608.27 491.42 333.51 119.98 10m1029.35 873.6C911.13 682.02 676.74 476.87 144.06 9.73M1149.33 883.6C925.14 689.55 702.71 496.87 144.06 9.73m1029.36 873.61C951.86 691.15 731.38 498.99 168.9 10.12m1004.52 873.22C818.1 580.6 466.44 274.72 168.9 10.12m1028.6 872.95C903.02 625.59 605.05 368.01 192.98 9.85M1197.5 883.07C841.77 574.21 490.02 268.47 192.98 9.85m1029.35 873.61C908.48 612.05 591.95 338.03 217.06 9.59m1005.27 873.87C927.23 623.77 632.4 367.54 217.06 9.59m1029.36 873.6C923.52 602.34 601.72 321.48 241.9 9.98m1004.52 873.21C935.14 612.53 623.89 341.68 241.9 9.98m1027.84 872.29C900.21 556.82 528.86 232.74 265.98 9.71m1003.76 872.56C940.78 593.22 611.1 307.38 265.98 9.71m1020.3 865.73C1040.19 659.95 793.6 445.98 290.81 10.1m995.47 865.34c-300.23-261-599.94-521.39-995.47-865.34m1002.94 850.64C1020.69 622.49 748.53 387 314.9 9.83m978.85 850.91C956.37 565.16 617.01 270.2 314.9 9.83m980.3 830.97c-231.98-202-460.32-401.35-956.22-831.23M1295.2 840.8C931.27 526.94 568.34 211.98 338.98 9.57m956.15 809.97C931.32 498.87 567.22 180.88 363.81 9.96m931.32 809.58C1065.23 620.79 838.02 422.92 363.81 9.96m931.25 788.32C952.94 499.29 609.37 201.94 387.9 9.69m907.16 788.59C975.5 520.67 654.26 241.26 387.9 9.69m907.09 767.32c-218.41-187.47-434.9-374.54-882.26-766.93m882.26 766.93C1102.53 610.64 907.32 441.02 412.73 10.08m882.19 745.67C982.71 482.47 671.98 211.55 436.81 9.82m858.11 745.93C1046.17 540.78 796.46 323.22 436.81 9.82m858.8 725.33C1097.49 566.86 902.15 396.17 461.65 10.21m833.96 724.94C1062.24 532.62 827.25 328.46 461.65 10.21m833.89 703.68C1120.03 561.79 945.47 410.53 485.73 9.94m809.81 703.95C1125.19 562.63 954.63 414.21 485.73 9.94m809.74 682.69C1034.06 467.49 774.15 241.43 509.81 9.67m785.66 682.96C1032.51 460.6 768.33 230.38 509.81 9.67m785.59 661.7C1005.73 418.01 714.83 164.85 534.65 10.06m760.75 661.31C1000.31 413.89 705.56 157.71 534.65 10.06m760.68 640.05C1019.02 409.79 744.48 169.06 558.73 9.8m736.6 640.31C1075.52 459.06 854.03 266.93 558.73 9.8m736.53 619.05C1140.2 492.26 980.99 354.35 583.57 10.19m711.69 618.66c-176.75-156.4-354.55-311.18-711.69-618.66m711.62 597.4C1041.34 384.21 784.53 160.14 607.65 9.92m687.54 597.67C1024.39 374.48 756.54 140.96 607.65 9.92m687.47 576.41c-211.94-182.6-424.17-366.2-663.39-576.68m663.39 576.68C1109.24 425.86 922.16 263.03 631.73 9.65m663.32 555.42c-136.09-116.98-271.77-233.73-638.48-555.03m638.48 555.03C1147.22 435.24 998.93 306.9 656.57 10.04m638.41 533.77C1063.96 345.29 831.69 144.18 680.65 9.78m614.33 534.03C1097.01 372.56 899.14 201.05 680.65 9.78m614.27 512.77C1097.61 350.77 898.3 178.34 705.49 10.17m589.43 512.38C1087.08 340.79 879.15 160.4 705.49 10.17m590.11 491.77C1116.47 345.32 936.65 189 729.57 9.9m566.03 492.04C1146.73 372.19 997.02 242.22 729.57 9.9m565.96 470.78c-146.28-129.56-292.9-256.64-541.88-471.05m541.88 471.05C1143.28 344.5 989.07 210.86 753.65 9.63m541.81 449.79C1095.77 283.78 894.9 109 778.49 10.02m516.97 449.4c-185-161.22-368.27-320.32-516.97-449.4m516.9 428.14C1142.52 305.81 990.37 172.65 802.57 9.76m492.82 428.4c-130.83-115.43-262.92-229.93-492.82-428.4m492.75 407.14c-117.25-98.79-233.7-199.8-467.92-406.75m467.92 406.75C1154.45 296.86 1014.89 175.88 827.4 10.15m467.86 385.49c-90.91-80.31-184.04-161.63-443.77-385.76m443.77 385.76C1143.99 263 992.02 130.57 851.49 9.88m443.7 364.5c-121.06-105.3-242.16-211.15-419.62-364.77m419.62 364.77C1146.93 245.04 999.62 117.26 875.57 9.61m419.55 343.51C1174.6 249.83 1055.31 146.54 900.4 10m394.72 343.12C1192.49 265.78 1090.25 177.33 900.4 10m394.65 321.86C1182.63 232.67 1068.9 134.24 924.49 9.74m370.56 322.12c-84.53-71.97-167.73-144.27-370.56-322.12m370.49 300.86C1159.16 192.15 1022.64 73.56 949.32 10.13m345.66 300.47C1169.23 200.88 1043.16 91.98 949.32 10.13m345.59 279.21c-75.16-65.1-148.3-130.5-321.51-279.48m321.51 279.48c-125.16-107.65-250-215.35-321.51-279.48m322.2 258.88c-75.97-65.17-153.69-132.48-298.11-259.14m298.11 259.14c-96.44-81.18-191.78-164.36-298.11-259.14m298.04 237.88c-59.17-49.48-115.9-99.71-273.21-237.49m273.21 237.49c-96.88-85.24-195.06-170.85-273.21-237.49m273.14 216.23c-83.74-72.83-167.84-146.13-249.06-216.5m249.06 216.5c-95.19-83.41-191.77-166.34-249.06-216.5m248.99 195.24c-67.55-60.66-136.63-117.43-224.15-194.85m224.15 194.85c-47.71-43.15-95.8-84.24-224.15-194.85m224.08 173.59c-46.32-41.22-93.42-80.89-200-173.86m200 173.86c-65.45-56.98-130.56-114.03-200-173.86m199.93 152.6c-33.44-29.63-69.71-63.59-175.85-152.86m175.85 152.86c-52.44-44.56-101.98-89.65-175.85-152.86m175.78 131.6c-35.9-35.16-73.26-64.67-150.94-131.21m150.94 131.21c-47.93-40.25-94.99-81.76-150.94-131.21m150.87 109.95c-39.22-32.48-77.18-68.43-126.79-110.22m126.79 110.22c-33.79-28.62-66.42-58.77-126.79-110.22m126.72 88.96c-24.25-22.7-46.66-41.57-101.88-88.57m101.88 88.57c-23.49-20.46-44.26-39.52-101.88-88.57m101.82 67.31c-21.07-15.5-39.2-32.9-77.74-67.58m77.74 67.58c-21.4-19.49-43.63-37.93-77.74-67.58m77.67 46.32c-15.99-15.66-31.47-26.13-53.59-46.58m53.59 46.58c-17.2-15.65-34.1-30.01-53.59-46.58m52.76 24.66c-11.55-9.48-20.81-19.7-27.92-24.27m27.92 24.27c-7.4-6.03-13.5-10.42-27.92-24.27"/><path fill="none" stroke="#1e1e1e" stroke-width="4" d="M42 10c278.61.16 559.16-.55 1220.98 0M42 10c421.46-3.92 842.63-4.31 1220.98 0m0 0c22.63-1.06 30.5 10.47 32 32m-32-32c20.67 1.46 33.83 12.66 32 32m0 0c-1.45 231.65-.93 464.23 0 809.77m0-809.77c.13 322.98.36 646.44 0 809.77m0 0c.01 23.18-12.5 31.09-32 32m32-32c-.59 20.95-12.77 33.76-32 32m0 0c-407.55 2.81-814.84 2.52-1220.98 0m1220.98 0c-323.79 1.52-648.24 1.91-1220.98 0m0 0c-19.34-1.82-31.55-9.2-32-32m32 32c-22.29-1.63-31.21-12.55-32-32m0 0c2.36-277.71 1.14-556.2 0-809.77m0 809.77C12.09 657.11 12.45 461.45 10 42m0 0C8.54 20.84 20.11 10.85 42 10M10 42c2.21-21.27 8.95-33.38 32-32"/></g><g stroke-linecap="round"><path fill="none" stroke="#ffc9c9" stroke-width="2" d="M177.333 218.61s0 0 0 0m0 0s0 0 0 0m-6.95 32.38c10.42-15.05 23.84-29.52 35.43-40.75m-35.43 40.75c12.76-13.67 22.76-26.59 35.43-40.75m-35.16 64.83c16.48-17.92 33.36-38.23 56.42-64.9m-56.42 64.9c19.41-21.51 37.17-41.53 56.42-64.9m-56.16 88.99c27.93-32.12 52.43-61.68 76.76-88.3m-76.76 88.3c24.49-27.76 47.06-54.15 76.76-88.3m-77.15 113.13c25.92-29.48 51.56-59.02 98.41-113.2m-98.41 113.2c33.1-38.95 66.58-77.73 98.41-113.2m-97.48 136.53c42.12-48.05 82.51-96.44 118.74-136.6m-118.74 136.6c32.18-36.57 64.17-72.51 118.74-136.6m-109.29 150.12c36.15-39.49 71.57-84.6 130.55-150.19m-130.55 150.19c27.36-34.39 57-69.16 130.55-150.19M196.913 366.8c49.72-54.61 99.69-113.42 135.8-156.22m-135.8 156.22c41.41-47.05 82.68-94.17 135.8-156.22m-115.2 156.91c29.67-29.37 56.89-62.67 136.46-156.98m-136.46 156.98c32.92-39.16 66.55-78.25 136.46-156.98m-115.2 156.91c28.8-35.97 60.76-70.35 136.46-156.98m-136.46 156.98c43.93-51.01 88.57-103.21 136.46-156.98m-115.2 156.91c27.29-33.16 56.13-65.03 136.46-156.98m-136.46 156.98c30.3-33.73 61.21-70.12 136.46-156.98m-115.2 156.91c44.15-51.41 92.17-105.23 136.46-156.98m-136.46 156.98c47.33-52.75 93.07-104.55 136.46-156.98m-115.2 156.91c41.01-46.53 79.19-89.14 136.46-156.98m-136.46 156.98c31.84-35.86 61.86-70.56 136.46-156.98m-115.2 156.91c29.26-34.23 60.25-67.31 133.18-153.2m-133.18 153.2c46.88-51.18 92.03-104.56 133.18-153.2m-111.92 153.14c45.88-50.7 89.92-103.54 124-142.64m-124 142.64c35.25-39.08 68.64-78.91 124-142.64m-102.74 142.57c36.24-40.4 68.81-80.72 106.94-123.02m-106.94 123.02c29.22-32.13 57.46-64.55 106.94-123.02m-85.68 122.95c32.05-35.67 59.84-70.73 85.29-98.11m-85.29 98.11c22.32-25.79 44.72-49.78 85.29-98.11m-64.68 98.79c25.55-29.94 53.27-60.26 64.95-74.71m-64.95 74.71c14.63-16.62 29.38-33.44 64.95-74.71m-43.69 74.64c15.11-17.33 29.57-34.88 43.96-50.56m-43.96 50.56c8.98-9.89 18.66-19.6 43.96-50.56m-21.39 48.99c5.17-8.17 13.56-16.52 21-24.15m-21 24.15c4.61-6.14 10.71-12.06 21-24.15m-291.18 20.52s0 0 0 0m0 0s0 0 0 0m24.08-.27c-9.49-5.45-15.85-12.73-30.19-26.24m30.19 26.24c-8.12-7.55-14.8-13.73-30.19-26.24m54.27 25.98c-12.6-13.14-25.95-23.01-54.33-47.24m54.33 47.24c-16.8-13.97-31.19-28.74-54.33-47.24m79.17 47.63c-18.82-19.17-42.63-36.65-79.24-68.89m79.24 68.89c-28.47-25.34-58.34-52.15-79.24-68.89m103.32 68.62c-31.04-26.93-62.62-56.27-103.39-89.88m103.39 89.88c-25.19-22.72-51.65-43.25-103.39-89.88m127.47 89.62c-42.26-37.9-84.37-70.53-127.54-110.88m127.54 110.88c-30.35-25.72-61.18-52.35-127.54-110.88m152.38 111.27c-50.21-43.65-101.65-87.51-155.47-135.15m155.47 135.15c-46.08-38.76-92.84-79.84-155.47-135.15m179.55 134.88c-40.6-34.37-80.68-68.34-170.56-148.27m170.56 148.27c-45.58-39.08-90.75-77.95-170.56-148.27m195.4 148.66c-65.13-57.78-132.72-115.64-175.09-152.21m175.09 152.21c-60.78-51.83-120.5-105.63-175.09-152.21m199.17 151.94c-71.18-59.67-140.22-120.69-174.34-151.55m174.34 151.55c-59.74-53.94-120.1-105.87-174.34-151.55m198.42 151.29c-55.29-47.64-112.12-97.44-174.34-151.55m174.34 151.55c-67.78-60.91-138.66-121.68-174.34-151.55m196.91 149.97c-34.1-30.25-71.06-63.46-172.82-150.24m172.82 150.24c-60.5-52.33-119.16-104.53-172.82-150.24m191.62 145.38c-50.66-44-103.28-90.22-166.79-144.99m166.79 144.99c-49.41-41.14-97.85-83.64-166.79-144.99m174.27 130.29c-44.24-37.3-87.8-73.7-150.19-130.56m150.19 130.56c-58.9-51.26-117.18-101.14-150.19-130.56m157.67 115.86c-45.76-38.71-92.37-78.09-132.83-115.47m132.83 115.47c-49.55-44.01-98.76-87.79-132.83-115.47m132.76 94.21c-24.93-23.96-52.49-43.84-108.68-94.47m108.68 94.47c-40.24-36.12-80.7-71.76-108.68-94.47m108.61 73.21c-24.77-22.87-46.03-40.92-84.53-73.48m84.53 73.48c-19.52-17.67-37.3-34.31-84.53-73.48m84.46 52.22c-18.09-13.61-33.81-31.7-59.62-51.83m59.62 51.83c-16.12-14.27-33.98-28.63-59.62-51.83m55.78 27.29c-5.87-4.98-12.67-13.96-33.96-29.52m33.96 29.52c-10.59-10.53-22.3-19.71-33.96-29.52"/><path fill="none" stroke="#1e1e1e" stroke-width="4" d="M201.473 210.45c87.34-.1 170.58-.11 239.54 0m-239.54 0c86.29-2.55 173.36-2.16 239.54 0m0 0c20.18.81 30.33 12.27 32 32m-32-32c22.69.54 32.19 9.75 32 32m0 0c.03 25.92 1.91 53.59 0 92.5m0-92.5c.25 25.03-1.1 51.44 0 92.5m0 0c-1.02 22.19-10.41 33.09-32 32m32-32c.68 21.74-8.73 32.92-32 32m0 0c-55.18 1.84-113.27-1.18-239.54 0m239.54 0c-61.32-.31-124.5.91-239.54 0m0 0c-21.72-.99-33.49-11.21-32-32m32 32c-22.44.11-32.99-9.38-32-32m0 0c-1.39-20.54-.22-38.05 0-92.5m0 92.5c-.87-24.83-.18-50.34 0-92.5m0 0c.55-20.22 11.59-32.47 32-32m-32 32c-1.34-21.25 12.73-31.27 32-32"/></g><g stroke-linecap="round"><path fill="none" stroke="#ffc9c9" stroke-width="2" d="M836.356 222.867s0 0 0 0m0 0s0 0 0 0m-6.95 32.38c9.17-12.33 20.04-22.88 35.43-40.75m-35.43 40.75c7.52-9.2 15.93-18.91 35.43-40.75m-35.16 64.83c18.37-20.95 36.17-40.53 56.42-64.9m-56.42 64.9c22.24-25.76 44.13-49.48 56.42-64.9m-56.16 88.99c19.74-23.84 42.39-49.96 76.76-88.3m-76.76 88.3c23.14-25.69 45.58-53.33 76.76-88.3m-77.15 113.13c21.94-29.11 45-52.71 98.41-113.2m-98.41 113.2c37.95-44.17 76.6-85.54 98.41-113.2m-96.17 135.02c24.46-28.51 46.91-54.84 117.43-135.09m-117.43 135.09c24.15-27.48 48.26-57.89 117.43-135.09m-107.32 147.85c25.97-31.35 51.21-60.02 128.58-147.92m-128.58 147.92c36.98-43.08 73.24-85.55 128.58-147.92m-111.26 152.38c50.73-56.62 99.8-112.34 132.52-152.45m-132.52 152.45c34.96-40.59 69.62-78.81 132.52-152.45m-111.26 152.38c46.72-52.37 90.6-105.89 132.52-152.45m-132.52 152.45c33.62-39.69 66.89-76.76 132.52-152.45m-111.26 152.38c31.47-34.77 62.1-71.38 132.52-152.45m-132.52 152.45c39.15-44.55 78.06-91.32 132.52-152.45m-111.26 152.38c46.41-52.04 91.39-108.11 132.52-152.45m-132.52 152.45c38.59-44.67 77.38-90.26 132.52-152.45m-111.26 152.38c32.98-35.92 65.12-73.13 132.52-152.45m-132.52 152.45c28.88-35.29 58.95-69.95 132.52-152.45m-111.26 152.39c51.35-60.55 101.2-118.67 132.52-152.46m-132.52 152.46c35.56-42.52 72.33-83.94 132.52-152.46m-111.26 152.39c49.72-59.22 102.45-119.82 132.52-152.45m-132.52 152.45c39.01-45.46 78.31-92.27 132.52-152.45m-111.26 152.38c47.29-57.32 95.88-113.48 130.56-150.19m-130.56 150.19c43.79-48.35 87.63-99.28 130.56-150.19m-109.3 150.12c37.37-41.77 69.35-80.68 123.34-141.89m-123.34 141.89c28.63-32.79 56.91-65.97 123.34-141.89m-102.08 141.82c35.46-41.92 68.56-80.27 108.91-125.28m-108.91 125.28c24.03-26.24 46.81-53.76 108.91-125.28m-88.3 125.97c23.24-26.59 44.3-52.74 89.22-102.65m-89.22 102.65c26.77-29.73 52.82-58.02 89.22-102.65m-67.96 102.58c13.02-15.45 25.84-30.95 67.57-77.74m-67.57 77.74c26.97-30.91 51.87-60.25 67.57-77.74m-46.31 77.67c12.5-12.23 22.67-25.12 46.58-53.59m-46.58 53.59c18.02-20.45 36.69-42.52 46.58-53.59m-24.01 52.01c4.93-6.73 12.89-14.53 23.62-27.17m-23.62 27.17c7.25-7.04 13.55-16.59 23.62-27.17m-319.06 23.64s0 0 0 0m0 0s0 0 0 0m29.37 4.32c-12.57-12.93-27.51-22.22-40.76-35.43m40.76 35.43c-14.5-11.84-27.91-24.58-40.76-35.43m64.84 35.17c-21.06-16.47-41.66-35.78-64.91-56.43m64.91 56.43c-25.28-22.58-48.54-43.57-64.91-56.43m89.74 56.82c-29.57-23.99-59.99-52.82-89.81-78.08m89.81 78.08c-34.94-29.67-69.86-59.66-89.81-78.08m113.9 77.81c-39.46-33.74-76.83-66.54-113.96-99.07m113.96 99.07c-37.15-32.04-73.87-65.19-113.96-99.07m138.04 98.8c-42.26-35.96-83.4-72.16-138.11-120.06m138.11 120.06c-40.6-35.34-82.06-70.95-138.11-120.06m162.94 120.45c-59.08-52.34-116.63-104.56-159.24-138.43m159.24 138.43c-41.56-37.01-83.99-73.25-159.24-138.43m183.33 138.17c-49.97-42.49-97.35-85.8-171.32-148.93m171.32 148.93c-44.02-36.52-86.2-73.46-171.32-148.93m196.15 149.32c-55.78-48.23-110.5-95.23-175.09-152.21m175.09 152.21c-45.36-40.64-92.48-81.94-175.09-152.21m199.17 151.94c-51.7-42.51-104.36-87.62-175.09-152.21m175.09 152.21c-61.43-53.61-122.54-106.7-175.09-152.21m199.18 151.94c-63.69-54.2-126.29-111.38-175.1-152.2m175.1 152.2c-41.88-35.5-82.96-72.27-175.1-152.2m199.93 152.59c-70.18-60.94-137.71-120.82-175.09-152.2m175.09 152.2c-37.36-32.63-76.01-64.57-175.09-152.2m198.42 151.28c-58.01-49.75-114.21-100.24-174.34-151.55m174.34 151.55c-35.8-30.58-72.47-60.98-174.34-151.55m189.36 143.41c-32.03-29.85-68.78-59.16-164.52-143.02m164.52 143.02c-33.08-30.88-68.07-59.75-164.52-143.02m172 128.32c-44.46-40.15-92.65-78.59-147.92-128.59m147.92 128.59c-31.42-24.18-61.66-51.65-147.92-128.59m148.61 107.99c-24.3-22.13-50.02-44.44-124.53-108.25m124.53 108.25c-46.3-41.25-92.72-81.57-124.53-108.25m124.46 86.99c-22.15-18.63-47.19-41.85-99.62-86.6m99.62 86.6c-39.17-32.74-79.19-67.84-99.62-86.6m99.55 65.34c-14.64-14.05-33.21-28.22-75.47-65.61m75.47 65.61c-23.31-20.18-45.53-40.8-75.47-65.61m75.4 44.35c-14.84-11.51-31.92-28.47-50.56-43.96m50.56 43.96c-18.11-16.27-38.53-32.3-50.56-43.96m48.98 21.39c-8.62-8.76-15.21-12.43-24.15-21m24.15 21c-6.88-6.9-15.13-12.13-24.15-21"/><path fill="none" stroke="#1e1e1e" stroke-width="4" d="M860.496 214.707c65.52-2.5 133.21-2.31 267.56 0m-267.56 0c91.93-1.01 184.05-.83 267.56 0m0 0c20.06 1.92 32.25 12.38 32 32m-32-32c23.52-.09 30.04 9.7 32 32m0 0c-1.05 27.79 1.87 59.14 0 88.05m0-88.05c-1.13 22.09-1.08 44.64 0 88.05m0 0c-1.78 20.43-11.75 30.19-32 32m32-32c-1.21 20.6-9.6 31.43-32 32m0 0c-81.05-1.89-163.16-1.28-267.56 0m267.56 0c-95.67-.46-189.73-.24-267.56 0m0 0c-20.63.58-30.36-8.75-32-32m32 32c-21.66.55-33.34-11.63-32-32m0 0c1.01-31.28-.69-68.27 0-88.05m0 88.05c-1.06-30.49-.36-60.69 0-88.05m0 0c.66-21.3 12.2-30.06 32-32m-32 32c.4-23.25 12.56-32.32 32-32"/></g><g stroke-linecap="round"><path fill="none" stroke="#ffc9c9" stroke-width="2" d="M641.278 267.595s0 0 0 0m0 0s0 0 0 0m-3.01 27.86c8.23-9.43 14.21-13.18 26.24-30.19m-26.24 30.19c10.3-12.23 19.99-22.76 26.24-30.19m-25.97 54.27c10.47-16.23 25.9-27.54 47.23-54.34m-47.23 54.34c15.26-16.43 29.22-33.42 47.23-54.34m-47.62 79.18c17.77-18.79 34.58-41.63 55.11-63.4m-55.11 63.4c18.22-21.21 35.31-41.55 55.11-63.4m-54.85 87.48c13.47-11.3 23.05-25.07 54.46-62.64m-54.46 62.64c18.73-21.81 37.4-42.16 54.46-62.64m-54.85 87.47c19.71-22.48 34.97-40.6 55.11-63.39m-55.11 63.39c16.24-19.93 34.7-39.7 55.11-63.39m-54.84 87.48c17.9-21.2 39.81-45.8 54.45-62.64m-54.45 62.64c17.13-20.38 36.32-41.93 54.45-62.64m-54.18 86.72c15.48-19.43 31.51-37.89 54.45-62.64m-54.45 62.64c17.35-21.32 36.19-40.38 54.45-62.64m-54.84 87.47c16.66-19.28 37.03-40.77 55.11-63.39m-55.11 63.39c19.09-21.92 39.08-43.66 55.11-63.39m-54.85 87.48c16.66-17.19 34.21-36.85 54.46-62.64m-54.46 62.64c11.48-13.39 24.12-26.44 54.46-62.64m-54.85 87.47c18.87-22.71 42.67-48.88 55.11-63.39m-55.11 63.39c14.9-16.83 30.43-34.85 55.11-63.39m-54.84 87.47c16.56-21.44 35.03-42.44 55.11-63.39m-55.11 63.39c22.11-25.03 43.74-49.49 55.11-63.39m-54.84 87.48c17.19-21.29 38.16-44.08 54.45-62.64m-54.45 62.64c17.97-20.07 34.95-38.87 54.45-62.64m-54.84 87.47c20.7-25.2 39.87-48.82 55.1-63.39m-55.1 63.39c16.43-19.19 33.41-38.78 55.1-63.39m-54.84 87.47c20.38-23.21 37.38-41.35 54.46-62.64m-54.46 62.64c14.93-15.32 28.56-32.7 54.46-62.64m-53.54 85.97c20.85-25.59 41.54-50.29 53.8-61.89m-53.8 61.89c19.84-22.62 39.7-47.2 53.8-61.89m-37.78 67.86c7.2-10.32 16.22-18.84 38.05-43.77m-38.05 43.77c8.59-10.13 17.23-20.94 38.05-43.77m-17.45 44.46c4.28-6.22 8.56-10.45 17.06-19.63m-17.06 19.63c5.46-6.06 8.87-10.21 17.06-19.63m-51.93 15.72s0 0 0 0m0 0s0 0 0 0m14.27-8.79c-2.36-1.96-5.24-5.34-9.06-7.88m9.06 7.88c-2.35-1.59-4.78-4.36-9.06-7.88m42.95 16.14c-9.96-7.01-17.11-14.77-43.02-37.4m43.02 37.4c-14.9-11.32-28.55-23.75-43.02-37.4m50.5 22.7c-12.76-10.89-26.98-23.48-50.57-43.96m50.57 43.96c-10.76-9.46-21.95-19.39-50.57-43.96m50.5 22.7c-16.81-13.63-31.15-27.62-50.57-43.96m50.57 43.96c-15.95-13.7-32.2-26.74-50.57-43.96m50.5 22.7c-19.3-15.11-40.74-33.83-50.57-43.96m50.57 43.96c-13.34-11.18-25.19-22.52-50.57-43.96m51.26 23.35c-17.31-16.42-36.05-31.35-51.33-44.61m51.33 44.61c-16.12-13.51-30.09-26.18-51.33-44.61m51.26 23.35c-11.33-9.21-19.21-17.54-51.32-44.61m51.32 44.61c-16.2-14.36-33.48-28.17-51.32-44.61m51.25 23.35c-19.04-15.3-34.13-28.56-51.32-44.61m51.32 44.61c-17.29-14.8-35.85-30.43-51.32-44.61m51.25 23.35c-12.17-9.55-24.96-21.76-51.32-44.61m51.32 44.61c-16.22-13.84-32.7-26.72-51.32-44.61m51.25 23.35c-9.76-7.4-21.76-19.34-51.32-44.61m51.32 44.61c-13.74-12.5-27.48-23.4-51.32-44.61m51.25 23.35c-16.56-15.35-33.98-33.07-50.57-43.95m50.57 43.95c-16.17-14.53-31.78-27.25-50.57-43.95m50.5 22.69c-17.99-19.06-39.9-35.85-50.56-43.95m50.56 43.95c-19.23-18.31-39.53-34.84-50.56-43.95m50.49 22.69c-18.97-17.01-39.71-32.87-50.56-43.95m50.56 43.95c-18.51-17.65-37.24-32.51-50.56-43.95m50.49 22.69c-13.43-12.74-23.01-19.55-50.56-43.95m50.56 43.95c-19.16-15.26-36.31-32.97-50.56-43.95m50.49 22.69c-16.91-15.18-32.38-27.93-50.56-43.95m50.56 43.95c-17.69-13.85-33.32-28.71-50.56-43.95m50.5 22.69c-18.84-18.06-38.72-32.92-50.57-43.95m50.57 43.95c-18.03-15.81-35.94-32.17-50.57-43.95m50.5 22.69c-15.35-12.85-31.02-25.07-57.36-49.86m57.36 49.86c-20.93-16.58-39.31-33.64-57.36-49.86m57.29 28.6c-18.84-16.27-36.19-34.75-49.06-42.64m49.06 42.64c-11.62-10.82-25.52-21.43-49.06-42.64m48.99 21.38c-10.47-9.28-25.61-19.43-35.47-30.83m35.47 30.83c-6.32-6.79-15.23-11.65-35.47-30.83"/><path fill="none" stroke="#1e1e1e" stroke-width="4" d="M651.438 264.395c9.67 1.96 19.82.86 27.69 0m-27.69 0c8.97-.02 17.64-.69 27.69 0m0 0c10.77-.97 14.68 5.2 13.84 13.84m-13.84-13.84c11.47-1.28 11.76 5.52 13.84 13.84m0 0c-.66 118.27-1.07 237.04 0 349.7m0-349.7c1.86 105.01 2.28 211.02 0 349.7m0 0c.54 11.14-4.09 15.02-13.84 13.84m13.84-13.84c1.46 8.58-4.07 13.18-13.84 13.84m0 0c-9.62 1.86-20.28-.66-27.69 0m27.69 0c-8.17-.81-15.61-.3-27.69 0m0 0c-10.53 1.35-15.66-5.66-13.84-13.84m13.84 13.84c-9.12-.97-14.07-4.26-13.84-13.84m0 0c-.17-112.22.41-224.26 0-349.7m0 349.7c-.45-110.16.45-221.2 0-349.7m0 0c.55-8.51 2.97-12.53 13.84-13.84m-13.84 13.84c-.72-9.14 4.62-13.11 13.84-13.84"/></g><text fill="#6741d9" dominant-baseline="text-before-edge" font-family="Helvetica, Segoe UI Emoji" font-size="109.044" style="white-space:pre" transform="translate(235.54 676.039)">DOJO PWA GAME</text></svg>